<svg width="1440" height="488" viewBox="0 0 1440 488" fill="none" xmlns="http://www.w3.org/2000/svg">
<rect width="1440" height="488" fill="#F5C069"/>
<g clip-path="url(#clip0_1410_1714)">
<path d="M-74.2031 1023.37C13.3597 803.861 239.871 713.248 431.357 669.929C551.065 642.771 673.077 632.57 794.743 624.357C913.759 616.276 1032.78 623.032 1151.45 601.041C1220.34 588.191 1288.78 568.585 1353.76 539.043C1363.44 534.671 1373 530.167 1382.57 525.53C1524.63 456.113 1658.27 359.936 1786.97 262.566" stroke="url(#paint0_linear_1410_1714)" stroke-width="1.2" stroke-miterlimit="10"/>
<path d="M-69.8281 959.387C20.3846 763.456 246.205 684.898 437.575 641.446C556.131 614.553 677.452 602.365 797.966 595.609C915.484 588.985 1031.85 597.331 1148.45 582.627C1219.53 573.618 1290.16 556.264 1359.75 533.213C1429.34 510.163 1386.36 525.132 1399.38 519.171C1537.87 455.185 1666.22 359.935 1791 266.938" stroke="url(#paint1_linear_1410_1714)" stroke-width="1.2" stroke-miterlimit="10"/>
<path d="M-65.4531 895.534C27.4096 723.051 252.653 656.813 443.909 613.228C561.312 586.468 681.942 572.426 801.419 567.26C917.44 562.093 1031.27 572.294 1145.68 564.61C1219.07 559.708 1292.46 546.328 1365.97 527.649C1382.67 523.41 1400.07 520.496 1416.43 513.209C1550.66 453.463 1674.28 360.333 1795.26 271.574" stroke="url(#paint2_linear_1410_1714)" stroke-width="1.2" stroke-miterlimit="10"/>
<path d="M-61.0703 831.548C34.4423 682.646 259.11 628.463 450.135 584.879C566.387 558.384 686.209 542.354 804.65 538.777C919.173 535.068 1031.05 535.465 1142.69 546.461C1254.33 557.456 1294.89 537.055 1372.08 522.085C1392.36 518.111 1413.56 515.727 1433.37 507.248C1563.22 450.946 1682.24 360.863 1799.29 276.211" stroke="url(#paint3_linear_1410_1714)" stroke-width="1.2" stroke-miterlimit="10"/>
<path d="M-56.6875 767.695C41.475 642.241 265.452 600.246 456.477 556.529C571.576 530.299 690.707 512.283 807.995 510.296C921.021 508.043 1031.51 508.971 1139.81 528.445C1217.35 542.355 1297.54 528.445 1378.19 516.654C1458.84 504.864 1427.04 511.223 1450.31 501.287C1575.67 448.165 1690.19 361.261 1803.45 280.98" stroke="url(#paint4_linear_1410_1714)" stroke-width="1.2" stroke-miterlimit="10"/>
<path d="M-52.3125 703.709C48.5 601.703 271.9 571.896 462.695 528.179C576.642 502.081 695.082 482.078 811.218 481.68C922.746 480.885 1029.9 499.564 1136.7 510.162C1217.81 518.243 1299.96 520.098 1384.18 510.825C1411.83 507.778 1440.4 506.188 1467.13 495.06C1587.76 444.852 1698.14 361.525 1807.48 285.352" stroke="url(#paint5_linear_1410_1714)" stroke-width="1.1" stroke-miterlimit="10"/>
<path d="M-47.9375 639.724C55.5249 561.298 278.349 543.547 468.914 499.83C581.708 473.997 699.457 452.006 814.441 453.198C924.471 453.861 1029.43 476.117 1133.7 492.014C1217.46 504.864 1302.6 512.018 1390.17 505.261C1421.51 502.877 1453.77 501.42 1483.84 489.099C1599.86 441.541 1705.85 361.923 1811.28 290.121" stroke="url(#paint6_linear_1410_1714)" stroke-width="1.1" stroke-miterlimit="10"/>
<path d="M-43.5547 575.871C62.5576 520.894 284.806 515.33 475.255 471.48C586.898 445.78 703.84 421.935 817.902 424.717C926.434 426.969 1029.32 453.066 1130.94 473.997C1217.35 491.749 1305.49 491.749 1396.39 499.83C1487.3 507.911 1467.37 496.783 1500.89 483.271C1612.19 438.362 1713.92 362.586 1815.54 294.891" stroke="url(#paint7_linear_1410_1714)" stroke-width="1.1" stroke-miterlimit="10"/>
<path d="M-39.2969 511.885C69.4654 480.489 291.022 486.98 481.356 443.13C591.847 417.695 708.098 391.862 821.008 396.234C927.927 399.943 1028.74 430.28 1127.82 455.848C1216.88 478.899 1308.02 484.86 1402.38 494.134C1496.74 503.407 1480.72 491.749 1517.71 477.044C1624.28 434.784 1721.87 362.718 1819.45 299.395" stroke="url(#paint8_linear_1410_1714)" stroke-width="1.1" stroke-miterlimit="10"/>
<path d="M-34.9141 448.032C76.4981 440.084 297.479 458.763 487.698 414.913C597.036 389.743 712.596 361.923 824.354 367.752C929.775 372.919 1028.4 407.76 1124.95 437.699C1216.66 466.181 1310.67 478.369 1408.49 488.57C1450.66 492.941 1494.21 486.847 1534.65 471.083C1636.5 431.34 1729.82 363.248 1823.61 304.031" stroke="url(#paint9_linear_1410_1714)" stroke-width="1.1" stroke-miterlimit="10"/>
<path d="M-30.5312 384.047C83.5309 399.679 303.936 430.413 493.924 386.431C601.995 361.394 716.979 331.719 827.585 339.138C931.508 345.761 1027.83 385.239 1121.96 419.55C1216.09 453.729 1313.21 472.011 1414.6 483.006C1460.34 487.908 1507.58 481.946 1551.59 465.122C1648.72 427.764 1737.78 363.646 1827.76 308.801" stroke="url(#paint10_linear_1410_1714)" stroke-width="1.1" stroke-miterlimit="10"/>
<path d="M-26.1562 320.193C90.5558 359.273 310.269 402.195 500.142 358.213C607.061 333.44 721.239 301.779 830.807 310.787C933.233 318.868 1027.13 363.247 1118.84 401.533C1215.39 441.805 1315.51 466.048 1420.47 477.441C1469.79 482.873 1520.83 477.044 1568.29 459.027C1660.7 424.186 1745.49 364.042 1831.56 313.304" stroke="url(#paint11_linear_1410_1714)" stroke-width="1.1" stroke-miterlimit="10"/>
<path d="M-21.7812 256.207C97.5807 318.868 316.718 373.845 506.476 329.863C612.243 305.355 725.729 271.574 834.261 282.305C935.188 291.843 1026.55 341.256 1116.07 383.384C1214.93 429.882 1317.7 466.181 1426.69 471.877C1479.92 474.659 1534.3 471.877 1585.34 453.066C1672.91 420.609 1753.67 364.44 1835.82 318.073" stroke="url(#paint12_linear_1410_1714)" stroke-width="1.1" stroke-miterlimit="10"/>
<path d="M-17.4062 192.223C104.606 278.332 323.167 345.629 512.695 301.382C617.309 277.007 730.104 241.371 837.484 253.559C936.913 264.554 1025.51 319.134 1113.08 365.103C1214 417.961 1320 458.498 1432.8 466.182C1489.6 470.024 1547.78 466.712 1602.28 446.973C1685.11 416.901 1761.62 364.838 1839.96 322.579" stroke="url(#paint13_linear_1410_1714)" stroke-width="1.1" stroke-miterlimit="10"/>
<path d="M-13.0234 128.369C111.638 238.059 329.509 317.412 519.036 273.165C622.498 249.054 734.487 211.431 840.83 225.209C938.762 237.661 1024.6 297.54 1110.2 347.086C1212.97 406.7 1322.54 451.212 1438.91 460.618C1499.28 465.519 1561.15 461.545 1619.22 440.879C1697.33 413.191 1769.57 365.103 1844 327.082" stroke="url(#paint14_linear_1410_1714)" stroke-width="1.1" stroke-miterlimit="10"/>
<path d="M-8.64844 64.3828C118.663 197.521 335.957 289.061 525.254 244.814C627.565 220.969 738.862 181.359 844.052 196.726C940.487 210.636 1023.44 275.681 1107.2 328.936C1211.7 395.307 1324.84 443.66 1445.01 455.053C1509.07 461.147 1574.51 456.245 1636.15 434.917C1709.43 409.481 1777.52 365.5 1848.14 331.851" stroke="url(#paint15_linear_1410_1714)" stroke-width="1.1" stroke-miterlimit="10"/>
<path d="M-4.26562 0.529297C125.696 157.115 342.414 260.844 531.596 216.464C632.754 192.751 743.36 151.286 847.398 168.243C942.335 183.61 1022.18 253.955 1104.21 310.919C1210.21 384.311 1327.15 436.374 1451.01 449.621C1518.64 456.775 1587.65 450.946 1652.98 429.087C1721.53 406.037 1785.47 366.162 1852.07 336.62" stroke="url(#paint16_linear_1410_1714)" stroke-width="1.1" stroke-miterlimit="10"/>
<path d="M348.5 290V220.182H378.636C383.818 220.182 388.352 221.125 392.239 223.011C396.125 224.898 399.148 227.614 401.307 231.159C403.466 234.705 404.545 238.955 404.545 243.909C404.545 248.909 403.432 253.125 401.205 256.557C399 259.989 395.898 262.58 391.898 264.33C387.92 266.08 383.273 266.955 377.955 266.955H359.955V252.227H374.136C376.364 252.227 378.261 251.955 379.83 251.409C381.42 250.841 382.636 249.943 383.477 248.716C384.341 247.489 384.773 245.886 384.773 243.909C384.773 241.909 384.341 240.284 383.477 239.034C382.636 237.761 381.42 236.83 379.83 236.239C378.261 235.625 376.364 235.318 374.136 235.318H367.455V290H348.5ZM389.409 257.955L406.864 290H386.273L369.227 257.955H389.409ZM436.864 290.955C431.273 290.955 426.455 289.886 422.409 287.75C418.386 285.591 415.284 282.5 413.102 278.477C410.943 274.432 409.864 269.591 409.864 263.955C409.864 258.545 410.955 253.818 413.136 249.773C415.318 245.727 418.398 242.58 422.375 240.33C426.352 238.08 431.045 236.955 436.455 236.955C440.409 236.955 443.989 237.568 447.193 238.795C450.398 240.023 453.136 241.807 455.409 244.148C457.682 246.466 459.432 249.284 460.659 252.602C461.886 255.92 462.5 259.659 462.5 263.818V268.182H415.727V257.818H445.182C445.159 256.318 444.773 255 444.023 253.864C443.295 252.705 442.307 251.807 441.057 251.17C439.83 250.511 438.432 250.182 436.864 250.182C435.341 250.182 433.943 250.511 432.67 251.17C431.398 251.807 430.375 252.693 429.602 253.83C428.852 254.966 428.455 256.295 428.409 257.818V269C428.409 270.682 428.761 272.182 429.466 273.5C430.17 274.818 431.182 275.852 432.5 276.602C433.818 277.352 435.409 277.727 437.273 277.727C438.568 277.727 439.75 277.545 440.818 277.182C441.909 276.818 442.841 276.295 443.614 275.614C444.386 274.909 444.955 274.068 445.318 273.091H462.5C461.909 276.727 460.511 279.886 458.307 282.568C456.102 285.227 453.182 287.295 449.545 288.773C445.932 290.227 441.705 290.955 436.864 290.955ZM484.77 290.818C481.429 290.818 478.474 290.273 475.906 289.182C473.361 288.068 471.361 286.386 469.906 284.136C468.452 281.886 467.724 279.023 467.724 275.545C467.724 272.682 468.213 270.239 469.19 268.216C470.168 266.17 471.531 264.5 473.281 263.205C475.031 261.909 477.065 260.92 479.384 260.239C481.724 259.557 484.247 259.114 486.952 258.909C489.884 258.682 492.236 258.409 494.009 258.091C495.804 257.75 497.099 257.284 497.895 256.693C498.69 256.08 499.088 255.273 499.088 254.273V254.136C499.088 252.773 498.565 251.727 497.52 251C496.474 250.273 495.134 249.909 493.497 249.909C491.702 249.909 490.236 250.307 489.099 251.102C487.986 251.875 487.315 253.068 487.088 254.682H469.77C469.997 251.5 471.009 248.568 472.804 245.886C474.622 243.182 477.27 241.023 480.747 239.409C484.224 237.773 488.565 236.955 493.77 236.955C497.52 236.955 500.884 237.398 503.861 238.284C506.838 239.148 509.372 240.364 511.463 241.932C513.554 243.477 515.145 245.295 516.236 247.386C517.349 249.455 517.906 251.705 517.906 254.136V290H500.315V282.636H499.906C498.861 284.591 497.588 286.17 496.088 287.375C494.611 288.58 492.918 289.455 491.009 290C489.122 290.545 487.043 290.818 484.77 290.818ZM490.906 278.955C492.338 278.955 493.679 278.659 494.929 278.068C496.202 277.477 497.236 276.625 498.031 275.511C498.827 274.398 499.224 273.045 499.224 271.455V267.091C498.724 267.295 498.19 267.489 497.622 267.67C497.077 267.852 496.486 268.023 495.849 268.182C495.236 268.341 494.577 268.489 493.872 268.625C493.19 268.761 492.474 268.886 491.724 269C490.27 269.227 489.077 269.602 488.145 270.125C487.236 270.625 486.554 271.25 486.099 272C485.668 272.727 485.452 273.545 485.452 274.455C485.452 275.909 485.963 277.023 486.986 277.795C488.009 278.568 489.315 278.955 490.906 278.955ZM545.852 290.682C542.125 290.682 538.693 289.705 535.557 287.75C532.443 285.795 529.943 282.83 528.057 278.852C526.193 274.875 525.261 269.864 525.261 263.818C525.261 257.5 526.239 252.364 528.193 248.409C530.17 244.455 532.716 241.557 535.83 239.716C538.966 237.875 542.261 236.955 545.716 236.955C548.307 236.955 550.58 237.409 552.534 238.318C554.489 239.205 556.125 240.398 557.443 241.898C558.761 243.375 559.761 245 560.443 246.773H560.716V220.182H579.534V290H560.852V281.409H560.443C559.716 283.182 558.67 284.773 557.307 286.182C555.966 287.568 554.33 288.67 552.398 289.489C550.489 290.284 548.307 290.682 545.852 290.682ZM552.807 276.227C554.534 276.227 556.011 275.727 557.239 274.727C558.489 273.705 559.443 272.273 560.102 270.432C560.784 268.568 561.125 266.364 561.125 263.818C561.125 261.227 560.784 259.011 560.102 257.17C559.443 255.307 558.489 253.886 557.239 252.909C556.011 251.909 554.534 251.409 552.807 251.409C551.08 251.409 549.602 251.909 548.375 252.909C547.17 253.886 546.239 255.307 545.58 257.17C544.943 259.011 544.625 261.227 544.625 263.818C544.625 266.409 544.943 268.636 545.58 270.5C546.239 272.341 547.17 273.761 548.375 274.761C549.602 275.739 551.08 276.227 552.807 276.227ZM675.261 255.091C675.261 262.864 673.75 269.42 670.727 274.761C667.705 280.08 663.625 284.114 658.489 286.864C653.352 289.591 647.625 290.955 641.307 290.955C634.943 290.955 629.193 289.58 624.057 286.83C618.943 284.057 614.875 280.011 611.852 274.693C608.852 269.352 607.352 262.818 607.352 255.091C607.352 247.318 608.852 240.773 611.852 235.455C614.875 230.114 618.943 226.08 624.057 223.352C629.193 220.602 634.943 219.227 641.307 219.227C647.625 219.227 653.352 220.602 658.489 223.352C663.625 226.08 667.705 230.114 670.727 235.455C673.75 240.773 675.261 247.318 675.261 255.091ZM655.761 255.091C655.761 250.909 655.205 247.386 654.091 244.523C653 241.636 651.375 239.455 649.216 237.977C647.08 236.477 644.443 235.727 641.307 235.727C638.17 235.727 635.523 236.477 633.364 237.977C631.227 239.455 629.602 241.636 628.489 244.523C627.398 247.386 626.852 250.909 626.852 255.091C626.852 259.273 627.398 262.807 628.489 265.693C629.602 268.557 631.227 270.739 633.364 272.239C635.523 273.716 638.17 274.455 641.307 274.455C644.443 274.455 647.08 273.716 649.216 272.239C651.375 270.739 653 268.557 654.091 265.693C655.205 262.807 655.761 259.273 655.761 255.091ZM718.259 267.091V237.636H737.077V290H719.213V280.045H718.668C717.531 283.386 715.543 286 712.702 287.886C709.861 289.75 706.486 290.682 702.577 290.682C698.918 290.682 695.713 289.841 692.963 288.159C690.236 286.477 688.111 284.159 686.588 281.205C685.088 278.25 684.327 274.864 684.304 271.045V237.636H703.122V267.091C703.145 269.682 703.804 271.716 705.099 273.193C706.418 274.67 708.259 275.409 710.622 275.409C712.19 275.409 713.543 275.08 714.679 274.42C715.838 273.739 716.724 272.784 717.338 271.557C717.974 270.307 718.281 268.818 718.259 267.091ZM746.648 290V237.636H764.92V247.591H765.466C766.42 243.909 767.932 241.216 770 239.511C772.091 237.807 774.534 236.955 777.33 236.955C778.148 236.955 778.955 237.023 779.75 237.159C780.568 237.273 781.352 237.443 782.102 237.67V253.727C781.17 253.409 780.023 253.17 778.659 253.011C777.295 252.852 776.125 252.773 775.148 252.773C773.307 252.773 771.648 253.193 770.17 254.034C768.716 254.852 767.568 256.011 766.727 257.511C765.886 258.989 765.466 260.727 765.466 262.727V290H746.648ZM807.125 290V220.182H837.398C842.716 220.182 847.182 220.898 850.795 222.33C854.432 223.761 857.17 225.784 859.011 228.398C860.875 231.011 861.807 234.091 861.807 237.636C861.807 240.205 861.239 242.545 860.102 244.659C858.989 246.773 857.42 248.545 855.398 249.977C853.375 251.386 851.011 252.364 848.307 252.909V253.591C851.307 253.705 854.034 254.466 856.489 255.875C858.943 257.261 860.898 259.182 862.352 261.636C863.807 264.068 864.534 266.932 864.534 270.227C864.534 274.045 863.534 277.443 861.534 280.42C859.557 283.398 856.739 285.739 853.08 287.443C849.42 289.148 845.057 290 839.989 290H807.125ZM826.08 274.864H834.943C838.125 274.864 840.511 274.273 842.102 273.091C843.693 271.886 844.489 270.114 844.489 267.773C844.489 266.136 844.114 264.75 843.364 263.614C842.614 262.477 841.545 261.614 840.159 261.023C838.795 260.432 837.148 260.136 835.216 260.136H826.08V274.864ZM826.08 248.409H833.852C835.511 248.409 836.977 248.148 838.25 247.625C839.523 247.102 840.511 246.352 841.216 245.375C841.943 244.375 842.307 243.159 842.307 241.727C842.307 239.568 841.534 237.92 839.989 236.784C838.443 235.625 836.489 235.045 834.125 235.045H826.08V248.409ZM890.341 220.182V290H871.523V220.182H890.341ZM925.156 290.955C919.474 290.955 914.611 289.83 910.565 287.58C906.52 285.307 903.418 282.148 901.259 278.102C899.099 274.034 898.02 269.318 898.02 263.955C898.02 258.591 899.099 253.886 901.259 249.841C903.418 245.773 906.52 242.614 910.565 240.364C914.611 238.091 919.474 236.955 925.156 236.955C930.838 236.955 935.702 238.091 939.747 240.364C943.793 242.614 946.895 245.773 949.054 249.841C951.213 253.886 952.293 258.591 952.293 263.955C952.293 269.318 951.213 274.034 949.054 278.102C946.895 282.148 943.793 285.307 939.747 287.58C935.702 289.83 930.838 290.955 925.156 290.955ZM925.293 277.045C926.884 277.045 928.259 276.511 929.418 275.443C930.577 274.375 931.474 272.852 932.111 270.875C932.747 268.898 933.065 266.545 933.065 263.818C933.065 261.068 932.747 258.716 932.111 256.761C931.474 254.784 930.577 253.261 929.418 252.193C928.259 251.125 926.884 250.591 925.293 250.591C923.611 250.591 922.168 251.125 920.963 252.193C919.759 253.261 918.838 254.784 918.202 256.761C917.565 258.716 917.247 261.068 917.247 263.818C917.247 266.545 917.565 268.898 918.202 270.875C918.838 272.852 919.759 274.375 920.963 275.443C922.168 276.511 923.611 277.045 925.293 277.045ZM985.156 310.727C979.906 310.727 975.406 309.977 971.656 308.477C967.929 307 965.031 304.955 962.963 302.341C960.918 299.75 959.77 296.773 959.52 293.409H977.656C977.838 294.523 978.293 295.42 979.02 296.102C979.747 296.784 980.679 297.273 981.815 297.568C982.974 297.886 984.27 298.045 985.702 298.045C988.134 298.045 990.145 297.455 991.736 296.273C993.349 295.091 994.156 292.955 994.156 289.864V281H993.611C992.929 282.773 991.884 284.284 990.474 285.534C989.065 286.761 987.372 287.705 985.395 288.364C983.418 289 981.247 289.318 978.884 289.318C975.156 289.318 971.724 288.455 968.588 286.727C965.474 285 962.974 282.261 961.088 278.511C959.224 274.761 958.293 269.864 958.293 263.818C958.293 257.5 959.27 252.364 961.224 248.409C963.202 244.455 965.747 241.557 968.861 239.716C971.997 237.875 975.293 236.955 978.747 236.955C981.338 236.955 983.611 237.409 985.565 238.318C987.52 239.205 989.156 240.398 990.474 241.898C991.793 243.375 992.793 245 993.474 246.773H993.884V237.636H1012.7V289.864C1012.7 294.295 1011.55 298.057 1009.26 301.148C1006.99 304.261 1003.78 306.636 999.645 308.273C995.509 309.909 990.679 310.727 985.156 310.727ZM985.838 275.955C987.565 275.955 989.043 275.477 990.27 274.523C991.52 273.545 992.474 272.159 993.134 270.364C993.815 268.545 994.156 266.364 994.156 263.818C994.156 261.227 993.815 259.011 993.134 257.17C992.474 255.307 991.52 253.886 990.27 252.909C989.043 251.909 987.565 251.409 985.838 251.409C984.111 251.409 982.634 251.909 981.406 252.909C980.202 253.886 979.27 255.307 978.611 257.17C977.974 259.011 977.656 261.227 977.656 263.818C977.656 266.409 977.974 268.614 978.611 270.432C979.27 272.227 980.202 273.602 981.406 274.557C982.634 275.489 984.111 275.955 985.838 275.955ZM1070.14 254.682H1052.82C1052.73 253.614 1052.35 252.693 1051.69 251.92C1051.03 251.148 1050.18 250.557 1049.14 250.148C1048.11 249.716 1046.98 249.5 1045.73 249.5C1044.11 249.5 1042.73 249.795 1041.57 250.386C1040.41 250.977 1039.84 251.818 1039.86 252.909C1039.84 253.682 1040.17 254.398 1040.85 255.057C1041.56 255.716 1042.91 256.227 1044.91 256.591L1055.55 258.5C1060.91 259.477 1064.9 261.125 1067.51 263.443C1070.15 265.739 1071.48 268.818 1071.5 272.682C1071.48 276.409 1070.36 279.648 1068.16 282.398C1065.98 285.125 1062.99 287.239 1059.19 288.739C1055.42 290.216 1051.11 290.955 1046.27 290.955C1038.27 290.955 1032.01 289.318 1027.49 286.045C1022.99 282.773 1020.48 278.455 1019.95 273.091H1038.64C1038.89 274.75 1039.7 276.034 1041.09 276.943C1042.5 277.83 1044.27 278.273 1046.41 278.273C1048.14 278.273 1049.56 277.977 1050.67 277.386C1051.81 276.795 1052.39 275.955 1052.41 274.864C1052.39 273.864 1051.89 273.068 1050.91 272.477C1049.95 271.886 1048.45 271.409 1046.41 271.045L1037.14 269.409C1031.8 268.477 1027.8 266.705 1025.14 264.091C1022.48 261.477 1021.16 258.114 1021.18 254C1021.16 250.364 1022.11 247.284 1024.05 244.761C1026 242.216 1028.78 240.284 1032.4 238.966C1036.03 237.625 1040.34 236.955 1045.32 236.955C1052.89 236.955 1058.85 238.523 1063.22 241.659C1067.6 244.795 1069.91 249.136 1070.14 254.682Z" fill="white"/>
</g>
<defs>
<linearGradient id="paint0_linear_1410_1714" x1="-96.9332" y1="933.311" x2="1835.24" y2="457.8" gradientUnits="userSpaceOnUse">
<stop stop-color="#F7941D" stop-opacity="0"/>
<stop offset="1" stop-color="#EC6C21"/>
</linearGradient>
<linearGradient id="paint1_linear_1410_1714" x1="-87.8053" y1="881.5" x2="1845.14" y2="456.12" gradientUnits="userSpaceOnUse">
<stop stop-color="#F6921D" stop-opacity="0"/>
<stop offset="1" stop-color="#ED6E21" stop-opacity="0.9"/>
</linearGradient>
<linearGradient id="paint2_linear_1410_1714" x1="-78.8968" y1="829.461" x2="1853.74" y2="453.753" gradientUnits="userSpaceOnUse">
<stop stop-color="#F68F1D" stop-opacity="0.1"/>
<stop offset="1" stop-color="#ED7121" stop-opacity="0.9"/>
</linearGradient>
<linearGradient id="paint3_linear_1410_1714" x1="-71.0125" y1="777.058" x2="1860.86" y2="453.511" gradientUnits="userSpaceOnUse">
<stop stop-color="#F58D1E" stop-opacity="0.2"/>
<stop offset="1" stop-color="#EE7420" stop-opacity="0.8"/>
</linearGradient>
<linearGradient id="paint4_linear_1410_1714" x1="-63.3883" y1="721.19" x2="1866.55" y2="446.33" gradientUnits="userSpaceOnUse">
<stop stop-color="#F48A1E" stop-opacity="0.2"/>
<stop offset="1" stop-color="#EF7620" stop-opacity="0.8"/>
</linearGradient>
<linearGradient id="paint5_linear_1410_1714" x1="-56.8346" y1="665.047" x2="1870.66" y2="441.375" gradientUnits="userSpaceOnUse">
<stop stop-color="#F4881E" stop-opacity="0.3"/>
<stop offset="1" stop-color="#EF7920" stop-opacity="0.7"/>
</linearGradient>
<linearGradient id="paint6_linear_1410_1714" x1="-50.6825" y1="608.269" x2="1873.54" y2="435.329" gradientUnits="userSpaceOnUse">
<stop stop-color="#F3851F" stop-opacity="0.4"/>
<stop offset="1" stop-color="#F07B20" stop-opacity="0.6"/>
</linearGradient>
<linearGradient id="paint7_linear_1410_1714" x1="-43.9659" y1="552.318" x2="1876.18" y2="426.753" gradientUnits="userSpaceOnUse">
<stop stop-color="#F2831F" stop-opacity="0.4"/>
<stop offset="1" stop-color="#F17E1F" stop-opacity="0.6"/>
</linearGradient>
<linearGradient id="paint8_linear_1410_1714" x1="-38.648" y1="495.036" x2="1876.93" y2="419.384" gradientUnits="userSpaceOnUse">
<stop stop-color="#F2801F" stop-opacity="0.5"/>
<stop offset="1" stop-color="#F2801F" stop-opacity="0.5"/>
</linearGradient>
<linearGradient id="paint9_linear_1410_1714" x1="-33.6001" y1="437.469" x2="1876.76" y2="411.368" gradientUnits="userSpaceOnUse">
<stop stop-color="#F17E1F" stop-opacity="0.6"/>
<stop offset="1" stop-color="#F2831F" stop-opacity="0.4"/>
</linearGradient>
<linearGradient id="paint10_linear_1410_1714" x1="-29.0512" y1="379.778" x2="1875.81" y2="402.911" gradientUnits="userSpaceOnUse">
<stop stop-color="#F07B20" stop-opacity="0.6"/>
<stop offset="1" stop-color="#F3851F" stop-opacity="0.4"/>
</linearGradient>
<linearGradient id="paint11_linear_1410_1714" x1="-25.1216" y1="322.104" x2="1873.72" y2="394.206" gradientUnits="userSpaceOnUse">
<stop stop-color="#EF7920" stop-opacity="0.7"/>
<stop offset="1" stop-color="#F4881E" stop-opacity="0.3"/>
</linearGradient>
<linearGradient id="paint12_linear_1410_1714" x1="-21.0621" y1="264.124" x2="1871.26" y2="382.093" gradientUnits="userSpaceOnUse">
<stop stop-color="#EF7620" stop-opacity="0.8"/>
<stop offset="1" stop-color="#F48A1E" stop-opacity="0.2"/>
</linearGradient>
<linearGradient id="paint13_linear_1410_1714" x1="-18.0019" y1="206.832" x2="1867.33" y2="373.384" gradientUnits="userSpaceOnUse">
<stop stop-color="#EE7420" stop-opacity="0.8"/>
<stop offset="1" stop-color="#F58D1E" stop-opacity="0.2"/>
</linearGradient>
<linearGradient id="paint14_linear_1410_1714" x1="-14.9204" y1="149.174" x2="1863.13" y2="361.309" gradientUnits="userSpaceOnUse">
<stop stop-color="#ED7121" stop-opacity="0.9"/>
<stop offset="1" stop-color="#F68F1D" stop-opacity="0.1"/>
</linearGradient>
<linearGradient id="paint15_linear_1410_1714" x1="-12.708" y1="91.9696" x2="1857.48" y2="352.494" gradientUnits="userSpaceOnUse">
<stop stop-color="#ED6E21" stop-opacity="0.9"/>
<stop offset="1" stop-color="#F6921D" stop-opacity="0"/>
</linearGradient>
<linearGradient id="paint16_linear_1410_1714" x1="-10.6557" y1="36.3267" x2="1851.45" y2="342.331" gradientUnits="userSpaceOnUse">
<stop stop-color="#EC6C21"/>
<stop offset="1" stop-color="#F7941D" stop-opacity="0"/>
</linearGradient>
<clipPath id="clip0_1410_1714">
<rect width="1440" height="488" fill="white"/>
</clipPath>
</defs>
</svg>
